PathFileType	4	(X/Y/Z)	./001.trc	
DataRate	CameraRate	NumFrames	NumMarkers	Units	OrigDataRate	OrigDataStartFrame	OrigNumFrames	
180	180	4	0	mm	180	595	951	
Frame#	Time	LIAS			RIAS			LIPS			RIPS			LFTC			RFTC			CV7			SJN			TV2			SXS			TV7			LAH			RAH			LPH			RPH			LHGT			LCAJ			LHLE			LUA			LHM2			LUSP			LRSP			RHGT			RCAJ			RHLE			RHME			RUA			RHM2			RUSP			RRSP			LFLE			LTH			LFAL			LTAM			LSK			LFAX			LTTC			LFM5			LFM2			LFM1			LFCC			LDP1			RFLE			RFME			RTH			RFAL			RTAM			RSK			RFAX			RTTC			RFM5			RFM2			RFM1			RFCC			RDP1			LHME				
		X1	Y1	Z1	X2	Y2	Z2	X3	Y3	Z3	X4	Y4	Z4	X5	Y5	Z5	X6	Y6	Z6	X7	Y7	Z7	X8	Y8	Z8	X9	Y9	Z9	X10	Y10	Z10	X11	Y11	Z11	X12	Y12	Z12	X13	Y13	Z13	X14	Y14	Z14	X15	Y15	Z15	X16	Y16	Z16	X17	Y17	Z17	X18	Y18	Z18	X19	Y19	Z19	X20	Y20	Z20	X21	Y21	Z21	X22	Y22	Z22	X23	Y23	Z23	X24	Y24	Z24	X25	Y25	Z25	X26	Y26	Z26	X27	Y27	Z27	X28	Y28	Z28	X29	Y29	Z29	X30	Y30	Z30	X31	Y31	Z31	X32	Y32	Z32	X33	Y33	Z33	X34	Y34	Z34	X35	Y35	Z35	X36	Y36	Z36	X37	Y37	Z37	X38	Y38	Z38	X39	Y39	Z39	X40	Y40	Z40	X41	Y41	Z41	X42	Y42	Z42	X43	Y43	Z43	X44	Y44	Z44	X45	Y45	Z45	X46	Y46	Z46	X47	Y47	Z47	X48	Y48	Z48	X49	Y49	Z49	X50	Y50	Z50	X51	Y51	Z51	X52	Y52	Z52	X53	Y53	Z53	X54	Y54	Z54	X55	Y55	Z55	X56	Y56	Z56		
	
5.950000000000000000e+02	3.299999999999999822e+00	2.595869999999999891e+02	8.778089999999999691e+02	-7.636400000000000432e+01	1.784499999999999886e+02	9.122789999999999964e+02	1.361020000000000039e+02	4.834499999999999886e+01	1.034583000000000084e+03	-1.060109999999999957e+02	1.471599999999999930e+01	1.056631000000000085e+03	-1.079000000000000181e+00	2.371560000000000059e+02	8.072009999999999081e+02	-1.482430000000000234e+02	1.967299999999999827e+01	8.337580000000000382e+02	1.611109999999999900e+02	1.873120000000000118e+02	1.392230000000000018e+03	-1.917699999999999960e+01	3.395430000000000064e+02	1.276384999999999991e+03	-4.920000000000000484e-01	1.364219999999999970e+02	1.326351999999999862e+03	-1.007099999999999973e+01	2.976179999999999950e+02	1.175605000000000018e+03	2.980400000000000205e+01	7.581400000000000716e+01	1.219071999999999889e+03	-1.631899999999999906e+01	3.307559999999999718e+02	1.596281999999999925e+03	-2.302400000000000091e+01	2.485860000000000127e+02	1.579440000000000055e+03	8.415400000000001057e+01	2.759019999999999868e+02	1.537112000000000080e+03	-9.515899999999999181e+01	1.752650000000000148e+02	1.532974999999999909e+03	5.825999999999999623e+00	1.449100000000000250e+02	1.300193999999999960e+03	-1.671519999999999868e+02	3.062920000000000300e+02	1.326704999999999927e+03	-1.941690000000000111e+02	3.559700000000000273e+02	1.040865999999999985e+03	-2.710009999999999764e+02	2.728209999999999695e+02	1.113382000000000062e+03	-2.853640000000000327e+02	4.338719999999999573e+02	1.168581000000000131e+03	8.384000000000000341e+00	4.014460000000000264e+02	1.077026000000000067e+03	-4.433399999999999608e+01	4.092330000000000041e+02	1.163817999999999984e+03	-5.403000000000000114e+01	1.678520000000000039e+02	1.313480999999999995e+03	1.438830000000000098e+02	2.837520000000000095e+02	1.341500000000000000e+03	1.097379999999999995e+02	4.156360000000000241e+02	1.049747000000000071e+03	1.681140000000000043e+02	3.165450000000000159e+02	1.009903999999999883e+03	1.212139999999999986e+02	3.059990000000000236e+02	1.143884999999999991e+03	2.230049999999999955e+02	5.689869999999999663e+02	7.859489999999999554e+02	1.532000000000000028e+01	4.939140000000000441e+02	8.185539999999999736e+02	7.915099999999999625e+01	5.073360000000000127e+02	8.574699999999999136e+02	-2.447999999999999954e+00	2.453369999999999891e+02	4.564739999999999895e+02	-7.655199999999999250e+01	2.610910000000000082e+02	5.736920000000000073e+02	1.478500000000000014e+01	2.267569999999999766e+02	1.073009999999999877e+02	-3.026800000000000068e+01	1.483750000000000000e+02	1.169169999999999874e+02	4.238499999999999801e+01	2.418689999999999998e+02	2.901520000000000437e+02	1.803700000000000259e+01	2.362110000000000127e+02	3.907939999999999827e+02	-9.519199999999999307e+01	2.360279999999999916e+02	4.439139999999999873e+02	3.639900000000000091e+01	2.991129999999999995e+02	6.388900000000000290e+01	6.841299999999999670e+01	2.645810000000000173e+02	7.715699999999999648e+01	9.790699999999999648e+01	2.197040000000000077e+02	6.067099999999999937e+01	1.231529999999999916e+02	1.370000000000000000e+02	8.649099999999999966e+01	-6.649199999999999022e+01	2.560200000000000387e+02	5.237199999999999989e+01	1.623880000000000052e+02	-4.442600000000000193e+01	4.502999999999999545e+02	8.413999999999999702e+00	1.199110000000000014e+02	4.455540000000000305e+02	2.594999999999999929e+01	5.785099999999999909e+01	6.554879999999999427e+02	1.644379999999999882e+02	-3.507230000000000132e+02	2.335430000000000064e+02	2.308099999999999952e+01	-2.614340000000000259e+02	1.789799999999999898e+02	-2.407000000000000028e+01	-2.524439999999999884e+02	2.517969999999999970e+02	7.287399999999999523e+01	-1.857530000000000143e+02	4.851680000000000064e+02	1.017840000000000060e+02	-1.019710000000000036e+02	4.187649999999999864e+02	1.364360000000000070e+02	-3.602939999999999827e+02	1.254859999999999900e+02	8.813500000000000512e+01	-3.133199999999999932e+02	9.961200000000000898e+01	8.304599999999999227e+01	-2.909599999999999795e+02	6.854899999999999238e+01	5.992900000000000205e+01	-3.489070000000000391e+02	2.459969999999999857e+02	-6.976800000000000068e+01	-2.789010000000000105e+02	2.964000000000000057e+01	8.812699999999999534e+01	2.544519999999999982e+02	1.039312999999999874e+03	-1.965880000000000223e+02
5.960000000000000000e+02	3.305556000000000161e+00	2.595569999999999595e+02	8.775110000000000809e+02	-7.651299999999999102e+01	1.793439999999999941e+02	9.119139999999999873e+02	1.363269999999999982e+02	4.854599999999999937e+01	1.034772999999999911e+03	-1.052280000000000086e+02	1.541200000000000081e+01	1.056723999999999933e+03	-1.640000000000000069e-01	2.368480000000000132e+02	8.071169999999999618e+02	-1.483049999999999784e+02	2.066700000000000159e+01	8.337830000000000155e+02	1.619619999999999891e+02	1.890860000000000127e+02	1.391846000000000004e+03	-1.776500000000000057e+01	3.408160000000000309e+02	1.275576000000000022e+03	1.099999999999999936e-02	1.377410000000000139e+02	1.326278999999999996e+03	-8.859999999999999432e+00	2.984639999999999986e+02	1.175183999999999969e+03	3.000799999999999912e+01	7.683100000000000307e+01	1.219112000000000080e+03	-1.540300000000000047e+01	3.323890000000000100e+02	1.595846000000000004e+03	-2.184199999999999875e+01	2.504710000000000036e+02	1.578691000000000031e+03	8.542700000000000671e+01	2.774340000000000259e+02	1.536778999999999996e+03	-9.395299999999998875e+01	1.769630000000000223e+02	1.532507000000000062e+03	7.204000000000000625e+00	1.455519999999999925e+02	1.300257999999999811e+03	-1.660949999999999989e+02	3.072210000000000036e+02	1.326405999999999949e+03	-1.935399999999999920e+02	3.557019999999999982e+02	1.040580999999999904e+03	-2.711879999999999882e+02	2.727840000000000487e+02	1.113429999999999836e+03	-2.851490000000000009e+02	4.347649999999999864e+02	1.167431000000000040e+03	8.278000000000000469e+00	4.018689999999999714e+02	1.076104000000000042e+03	-4.452600000000000335e+01	4.099119999999999777e+02	1.162914999999999964e+03	-5.412500000000000000e+01	1.696800000000000068e+02	1.312836999999999989e+03	1.449070000000000107e+02	2.855529999999999973e+02	1.340684999999999945e+03	1.106380000000000052e+02	4.144820000000000277e+02	1.046996999999999844e+03	1.667309999999999945e+02	3.144179999999999495e+02	1.008607999999999947e+03	1.207450000000000045e+02	3.065600000000000023e+02	1.142265000000000100e+03	2.232359999999999900e+02	5.619840000000000373e+02	7.813520000000000891e+02	1.078800000000000026e+01	4.887479999999999905e+02	8.151389999999998963e+02	7.617900000000000205e+01	5.014590000000000032e+02	8.541039999999999281e+02	-5.557000000000000384e+00	2.452650000000000148e+02	4.565009999999999764e+02	-7.645399999999999352e+01	2.612360000000000468e+02	5.736119999999999663e+02	1.481499999999999950e+01	2.267119999999999891e+02	1.073119999999999976e+02	-3.026699999999999946e+01	1.483470000000000084e+02	1.169030000000000058e+02	4.242799999999999727e+01	2.419090000000000202e+02	2.901440000000000055e+02	1.808299999999999841e+01	2.361250000000000000e+02	3.908430000000000177e+02	-9.508500000000000796e+01	2.361650000000000205e+02	4.438929999999999723e+02	3.651999999999999602e+01	2.991200000000000045e+02	6.389000000000000057e+01	6.844100000000000250e+01	2.645799999999999841e+02	7.715099999999999625e+01	9.790699999999999648e+01	2.196930000000000121e+02	6.066499999999999915e+01	1.231520000000000010e+02	1.369830000000000041e+02	8.648799999999999955e+01	-6.646399999999999864e+01	2.560210000000000150e+02	5.236200000000000188e+01	1.623940000000000055e+02	-4.459100000000000108e+01	4.504150000000000205e+02	9.296000000000001151e+00	1.200120000000000005e+02	4.455779999999999745e+02	2.628800000000000026e+01	5.852799999999999869e+01	6.554779999999999518e+02	1.649809999999999945e+02	-3.503629999999999995e+02	2.329629999999999939e+02	2.683800000000000097e+01	-2.613730000000000473e+02	1.784290000000000020e+02	-2.085999999999999943e+01	-2.517380000000000280e+02	2.514390000000000214e+02	7.588499999999999091e+01	-1.013199999999999932e+02	4.189250000000000114e+02	1.377119999999999891e+02	-1.012770000000000010e+02	4.189370000000000118e+02	1.378020000000000209e+02	-3.595039999999999623e+02	1.247560000000000002e+02	9.182800000000000296e+01	-3.129519999999999982e+02	9.845600000000000307e+01	8.625399999999999068e+01	-2.906299999999999955e+02	6.770700000000000784e+01	6.297400000000000375e+01	-3.490750000000000455e+02	2.454929999999999950e+02	-6.597899999999999920e+01	-2.782520000000000095e+02	2.966699999999999804e+01	9.077700000000000102e+01	2.543830000000000382e+02	1.039196999999999889e+03	-1.964839999999999804e+02
5.970000000000000000e+02	3.311110999999999915e+00	2.595409999999999968e+02	8.772410000000000991e+02	-7.668099999999999739e+01	1.802570000000000050e+02	9.115620000000000118e+02	1.365869999999999891e+02	4.872800000000000153e+01	1.035022000000000162e+03	-1.044210000000000065e+02	1.604699999999999704e+01	1.056807000000000016e+03	7.510000000000000009e-01	2.365440000000000111e+02	8.070399999999999636e+02	-1.483619999999999948e+02	2.160899999999999821e+01	8.337639999999998963e+02	1.627349999999999852e+02	1.903400000000000034e+02	1.391701999999999998e+03	-1.726699999999999946e+01	3.420609999999999786e+02	1.274763000000000147e+03	5.070000000000000062e-01	1.391009999999999991e+02	1.326171000000000049e+03	-7.842999999999999083e+00	2.993029999999999973e+02	1.174768000000000029e+03	3.020199999999999818e+01	7.783199999999999363e+01	1.219288000000000011e+03	-1.449199999999999910e+01	3.341730000000000018e+02	1.595209000000000060e+03	-2.050499999999999901e+01	2.522539999999999907e+02	1.577962999999999965e+03	8.677299999999999613e+01	2.789970000000000141e+02	1.536448000000000093e+03	-9.275199999999999534e+01	1.786020000000000039e+02	1.532017000000000053e+03	8.509999999999999787e+00	1.464809999999999945e+02	1.300402000000000044e+03	-1.651250000000000000e+02	3.081289999999999623e+02	1.326067999999999984e+03	-1.928839999999999861e+02	3.554579999999999700e+02	1.040302999999999884e+03	-2.713509999999999991e+02	2.727749999999999773e+02	1.113469000000000051e+03	-2.849350000000000023e+02	4.355849999999999795e+02	1.166342000000000098e+03	8.151999999999999247e+00	4.021509999999999536e+02	1.075245999999999867e+03	-4.465100000000000335e+01	4.106500000000000341e+02	1.162029999999999973e+03	-5.413900000000000290e+01	1.713669999999999902e+02	1.312483999999999924e+03	1.457609999999999957e+02	2.873589999999999804e+02	1.339855999999999995e+03	1.114680000000000035e+02	4.133410000000000082e+02	1.044280000000000200e+03	1.655939999999999941e+02	3.124060000000000059e+02	1.007344000000000051e+03	1.200879999999999939e+02	3.069919999999999618e+02	1.140596000000000004e+03	2.235579999999999927e+02	5.549389999999999645e+02	7.768969999999999345e+02	6.562000000000000277e+00	4.838009999999999877e+02	8.120420000000000300e+02	7.434999999999999432e+01	4.956920000000000073e+02	8.509649999999999181e+02	-8.605000000000000426e+00	2.451910000000000025e+02	4.565480000000000018e+02	-7.637500000000000000e+01	2.613960000000000150e+02	5.735960000000000036e+02	1.482499999999999929e+01	2.266769999999999925e+02	1.073309999999999889e+02	-3.025900000000000034e+01	1.483220000000000027e+02	1.168750000000000000e+02	4.245299999999999585e+01	2.419550000000000125e+02	2.901449999999999818e+02	1.813100000000000023e+01	2.360240000000000009e+02	3.908890000000000100e+02	-9.498300000000000409e+01	2.363220000000000027e+02	4.438729999999999905e+02	3.663400000000000034e+01	2.991150000000000091e+02	6.388799999999999812e+01	6.843200000000000216e+01	2.645719999999999459e+02	7.714999999999999147e+01	9.791200000000000614e+01	2.196939999999999884e+02	6.066700000000000159e+01	1.231640000000000015e+02	1.369499999999999886e+02	8.649099999999999966e+01	-6.643800000000000239e+01	2.560249999999999773e+02	5.234899999999999665e+01	1.623979999999999961e+02	-4.478300000000000125e+01	4.505560000000000400e+02	1.011500000000000021e+01	1.201379999999999910e+02	4.456109999999999900e+02	2.663899999999999935e+01	5.927499999999999858e+01	6.554479999999999791e+02	1.655439999999999827e+02	-3.499240000000000350e+02	2.322930000000000064e+02	3.059100000000000108e+01	-2.612169999999999845e+02	1.778899999999999864e+02	-1.778400000000000247e+01	-2.508960000000000150e+02	2.511080000000000041e+02	7.885000000000000853e+01	-1.005439999999999969e+02	4.190769999999999982e+02	1.390130000000000052e+02	-1.005270000000000010e+02	4.190480000000000018e+02	1.390889999999999986e+02	-3.586840000000000259e+02	1.238719999999999999e+02	9.543999999999999773e+01	-3.121890000000000214e+02	9.744200000000000728e+01	8.939400000000000546e+01	-2.902500000000000000e+02	6.676800000000000068e+01	6.592399999999999238e+01	-3.490720000000000027e+02	2.450700000000000216e+02	-6.199300000000000210e+01	-2.776159999999999854e+02	3.012300000000000111e+01	9.338499999999999091e+01	2.543039999999999736e+02	1.039088999999999942e+03	-1.964029999999999916e+02
5.980000000000000000e+02	3.316666999999999810e+00	2.595099999999999909e+02	8.769820000000000846e+02	-7.683199999999999363e+01	1.811469999999999914e+02	9.112259999999999991e+02	1.367400000000000091e+02	4.891199999999999903e+01	1.035171000000000049e+03	-1.036539999999999964e+02	1.667400000000000304e+01	1.056876999999999953e+03	1.721000000000000085e+00	2.361880000000000166e+02	8.069669999999999845e+02	-1.484129999999999825e+02	2.255700000000000216e+01	8.337860000000000582e+02	1.635819999999999936e+02	1.920509999999999877e+02	1.391345000000000027e+03	-1.612600000000000122e+01	3.432879999999999541e+02	1.273932000000000016e+03	8.880000000000000115e-01	1.404319999999999879e+02	1.326067000000000007e+03	-6.841000000000000192e+00	3.001370000000000005e+02	1.174357999999999947e+03	3.038599999999999923e+01	7.881600000000000250e+01	1.219362000000000080e+03	-1.356699999999999839e+01	3.357660000000000196e+02	1.594641999999999825e+03	-1.922499999999999787e+01	2.539449999999999648e+02	1.577256999999999834e+03	8.812100000000000932e+01	2.804769999999999754e+02	1.536083000000000084e+03	-9.159900000000000375e+01	1.802140000000000271e+02	1.531501999999999953e+03	9.753000000000000114e+00	1.475380000000000109e+02	1.300753000000000156e+03	-1.643100000000000023e+02	3.089660000000000082e+02	1.325676000000000158e+03	-1.922540000000000191e+02	3.551380000000000337e+02	1.039934999999999945e+03	-2.714360000000000355e+02	2.727719999999999914e+02	1.113493000000000166e+03	-2.847239999999999895e+02	4.364469999999999459e+02	1.165182999999999993e+03	8.094000000000001194e+00	4.025329999999999586e+02	1.074352999999999838e+03	-4.482999999999999829e+01	4.113109999999999786e+02	1.161172000000000025e+03	-5.423199999999999932e+01	1.731179999999999950e+02	1.311833999999999833e+03	1.467580000000000098e+02	2.890980000000000132e+02	1.339039999999999964e+03	1.122950000000000017e+02	4.120389999999999873e+02	1.041585000000000036e+03	1.644050000000000011e+02	3.105070000000000050e+02	1.006110000000000014e+03	1.195829999999999984e+02	3.073879999999999768e+02	1.139080999999999904e+03	2.238489999999999895e+02	5.478779999999999291e+02	7.726240000000000236e+02	2.684000000000000163e+00	4.784080000000000155e+02	8.087860000000000582e+02	7.159899999999998954e+01	4.899780000000000086e+02	8.479640000000000555e+02	-1.138799999999999990e+01	2.451080000000000041e+02	4.565810000000000173e+02	-7.626200000000000045e+01	2.615629999999999882e+02	5.735670000000000073e+02	1.484399999999999942e+01	2.266269999999999811e+02	1.073280000000000030e+02	-3.024200000000000088e+01	1.483009999999999877e+02	1.168590000000000089e+02	4.250199999999999534e+01	2.419890000000000043e+02	2.901329999999999814e+02	1.816900000000000048e+01	2.359070000000000107e+02	3.909350000000000023e+02	-9.487900000000000489e+01	2.364590000000000032e+02	4.438540000000000418e+02	3.676900000000000546e+01	2.991100000000000136e+02	6.388700000000000045e+01	6.842700000000000671e+01	2.645779999999999745e+02	7.714900000000000091e+01	9.791299999999999670e+01	2.197040000000000077e+02	6.066300000000000381e+01	1.231649999999999920e+02	1.369190000000000111e+02	8.649299999999999500e+01	-6.640899999999999181e+01	2.560259999999999536e+02	5.235399999999999920e+01	1.624069999999999823e+02	-4.502100000000000080e+01	4.506859999999999786e+02	1.094599999999999973e+01	1.202819999999999965e+02	4.456240000000000236e+02	2.700899999999999679e+01	5.997299999999999898e+01	6.553799999999999955e+02	1.660720000000000027e+02	-3.493539999999999850e+02	2.315560000000000116e+02	3.448299999999999699e+01	-2.609969999999999573e+02	1.774950000000000045e+02	-1.476700000000000124e+01	-2.500910000000000082e+02	2.507409999999999854e+02	8.187199999999999989e+01	-9.970400000000000773e+01	4.192339999999999804e+02	1.400660000000000025e+02	-9.973099999999999454e+01	4.190999999999999659e+02	1.403100000000000023e+02	-3.576719999999999686e+02	1.227430000000000092e+02	9.878300000000000125e+01	-3.107549999999999955e+02	9.675000000000000000e+01	9.236400000000000432e+01	-2.896889999999999645e+02	6.571099999999999852e+01	6.852900000000001057e+01	-3.491689999999999827e+02	2.449340000000000259e+02	-5.796900000000000119e+01	-2.769360000000000355e+02	3.045100000000000051e+01	9.589900000000000091e+01	2.546919999999999789e+02	1.038682000000000016e+03	-1.961469999999999914e+02
